{
  "asset": {
    "generator": "Khronos glTF Blender I/O v3.2.43",
    "version": "2.0"
  },
  "scene": 0,
  "scenes": [
    {
      "name": "Scene",
      "nodes": [
        0
      ]
    }
  ],
  "nodes": [
    {
      "mesh": 0,
      "name": "sphere_gltf"
    }
  ],
  "materials": [
    {
      "doubleSided": true,
      "name": "red_laterite_soil_stones",
      "normalTexture": {
        "index": 0
      },
      "pbrMetallicRoughness": {
        "baseColorTexture": {
          "index": 1
        },
        "metallicFactor": 0,
        "metallicRoughnessTexture": {
          "index": 2
        }
      }
    }
  ],
  "meshes": [
    {
      "name": "Sphere.001",
      "primitives": [
        {
          "attributes": {
            "POSITION": 0,
            "NORMAL": 1,
            "TEXCOORD_0": 2
          },
          "indices": 3,
          "material": 0
        }
      ]
    }
  ],
  "textures": [
    {
      "sampler": 0,
      "source": 0
    },
    {
      "sampler": 0,
      "source": 1
    },
    {
      "sampler": 0,
      "source": 2
    }
  ],
  "images": [
    {
      "mimeType": "image/jpeg",
      "name": "red_laterite_soil_stones_nor_gl",
      "uri": "textures/red_laterite_soil_stones_nor_gl_1k.jpg"
    },
    {
      "mimeType": "image/jpeg",
      "name": "red_laterite_soil_stones_diff",
      "uri": "textures/red_laterite_soil_stones_diff_1k.jpg"
    },
    {
      "mimeType": "image/jpeg",
      "name": "red_laterite_soil_stones_rough",
      "uri": "textures/red_laterite_soil_stones_arm_1k.jpg"
    }
  ],
  "accessors": [
    {
      "bufferView": 0,
      "componentType": 5126,
      "count": 53917,
      "max": [
        0.9985695481300354,
        1.004357099533081,
        1.0004483461380005
      ],
      "min": [
        -0.9985697269439697,
        -1.0062278509140015,
        -1.0004609823226929
      ],
      "type": "VEC3"
    },
    {
      "bufferView": 1,
      "componentType": 5126,
      "count": 53917,
      "type": "VEC3"
    },
    {
      "bufferView": 2,
      "componentType": 5126,
      "count": 53917,
      "type": "VEC2"
    },
    {
      "bufferView": 3,
      "componentType": 5123,
      "count": 322170,
      "type": "SCALAR"
    }
  ],
  "bufferViews": [
    {
      "buffer": 0,
      "byteLength": 647004,
      "byteOffset": 0
    },
    {
      "buffer": 0,
      "byteLength": 647004,
      "byteOffset": 647004
    },
    {
      "buffer": 0,
      "byteLength": 431336,
      "byteOffset": 1294008
    },
    {
      "buffer": 0,
      "byteLength": 644340,
      "byteOffset": 1725344
    }
  ],
  "samplers": [
    {
      "magFilter": 9729,
      "minFilter": 9987
    }
  ],
  "buffers": [
    {
      "byteLength": 2369684,
      "uri": "red_laterite_soil_stones.bin"
    }
  ]
}